<mxfile host="app.diagrams.net" agent="Mozilla/5.0 (Windows NT 10.0; Win64; x64) AppleWebKit/537.36 (KHTML, like Gecko) Chrome/131.0.0.0 Safari/537.36 Edg/131.0.0.0" version="24.9.0">
  <diagram name="หน้า-1" id="p7PYcfhG8gllAun52MiM">
    <mxGraphModel dx="1666" dy="747" grid="1" gridSize="10" guides="1" tooltips="1" connect="1" arrows="1" fold="1" page="1" pageScale="1" pageWidth="827" pageHeight="1169" math="0" shadow="0">
      <root>
        <mxCell id="0" />
        <mxCell id="1" parent="0" />
        <mxCell id="kVawy1lM2cVDPK1J28o6-5" value="" style="edgeStyle=orthogonalEdgeStyle;rounded=0;orthogonalLoop=1;jettySize=auto;html=1;" edge="1" parent="1" source="oI9zN6-_PxrDfcwFiO0w-2" target="kVawy1lM2cVDPK1J28o6-1">
          <mxGeometry relative="1" as="geometry" />
        </mxCell>
        <mxCell id="oI9zN6-_PxrDfcwFiO0w-2" value="Start" style="ellipse;whiteSpace=wrap;html=1;" parent="1" vertex="1">
          <mxGeometry x="354" y="20" width="120" height="80" as="geometry" />
        </mxCell>
        <mxCell id="oI9zN6-_PxrDfcwFiO0w-12" value="End" style="ellipse;whiteSpace=wrap;html=1;" parent="1" vertex="1">
          <mxGeometry x="354" y="540" width="120" height="80" as="geometry" />
        </mxCell>
        <mxCell id="kVawy1lM2cVDPK1J28o6-6" value="" style="edgeStyle=orthogonalEdgeStyle;rounded=0;orthogonalLoop=1;jettySize=auto;html=1;" edge="1" parent="1" source="kVawy1lM2cVDPK1J28o6-1" target="kVawy1lM2cVDPK1J28o6-2">
          <mxGeometry relative="1" as="geometry" />
        </mxCell>
        <mxCell id="kVawy1lM2cVDPK1J28o6-1" value="แสดงข้อความ" style="shape=parallelogram;perimeter=parallelogramPerimeter;whiteSpace=wrap;html=1;fixedSize=1;" vertex="1" parent="1">
          <mxGeometry x="337" y="140" width="154" height="60" as="geometry" />
        </mxCell>
        <mxCell id="kVawy1lM2cVDPK1J28o6-7" value="" style="edgeStyle=orthogonalEdgeStyle;rounded=0;orthogonalLoop=1;jettySize=auto;html=1;" edge="1" parent="1" source="kVawy1lM2cVDPK1J28o6-2" target="kVawy1lM2cVDPK1J28o6-3">
          <mxGeometry relative="1" as="geometry" />
        </mxCell>
        <mxCell id="kVawy1lM2cVDPK1J28o6-2" value="รับข้อมูลจากผู้ใช้" style="shape=parallelogram;perimeter=parallelogramPerimeter;whiteSpace=wrap;html=1;fixedSize=1;" vertex="1" parent="1">
          <mxGeometry x="337" y="240" width="154" height="60" as="geometry" />
        </mxCell>
        <mxCell id="kVawy1lM2cVDPK1J28o6-8" value="" style="edgeStyle=orthogonalEdgeStyle;rounded=0;orthogonalLoop=1;jettySize=auto;html=1;" edge="1" parent="1" source="kVawy1lM2cVDPK1J28o6-3" target="kVawy1lM2cVDPK1J28o6-4">
          <mxGeometry relative="1" as="geometry" />
        </mxCell>
        <mxCell id="kVawy1lM2cVDPK1J28o6-3" value="คำนวณผลรวม" style="rounded=0;whiteSpace=wrap;html=1;" vertex="1" parent="1">
          <mxGeometry x="342" y="340" width="144" height="60" as="geometry" />
        </mxCell>
        <mxCell id="kVawy1lM2cVDPK1J28o6-9" value="" style="edgeStyle=orthogonalEdgeStyle;rounded=0;orthogonalLoop=1;jettySize=auto;html=1;" edge="1" parent="1" source="kVawy1lM2cVDPK1J28o6-4" target="oI9zN6-_PxrDfcwFiO0w-12">
          <mxGeometry relative="1" as="geometry" />
        </mxCell>
        <mxCell id="kVawy1lM2cVDPK1J28o6-4" value="แสดงผลลัพธ์" style="shape=parallelogram;perimeter=parallelogramPerimeter;whiteSpace=wrap;html=1;fixedSize=1;" vertex="1" parent="1">
          <mxGeometry x="337" y="440" width="154" height="60" as="geometry" />
        </mxCell>
      </root>
    </mxGraphModel>
  </diagram>
</mxfile>
